<svg id="Capa_1" data-name="Capa 1" xmlns="http://www.w3.org/2000/svg" viewBox="0 0 283.46 70.87"><defs><style>.cls-1,.cls-4{fill:#4e4b4b;}.cls-1,.cls-2,.cls-3{fill-rule:evenodd;}.cls-2{fill:#fff;}.cls-3{fill:#1e1e1c;}.cls-5{fill:none;stroke:#4e4b4b;stroke-miterlimit:10;stroke-width:0.75px;}</style></defs><path class="cls-1" d="M44,30c1.35-2.35,2.26-6.18,1-8.71S41.11,16.69,40,14s.23-6.71-1.93-8.72A8,8,0,0,0,35.66,3.5c-.83-.28-2.39,1.31-3,1.76-1.5,1.14-2.83,2.43-4.29,3.61-1.3,1.07-2.94,1.58-4.36,2.46s-2.53,2-3.88,2.91-2.66,1.41-3.93,2.2a24.24,24.24,0,0,0-4,3.6c-.94.91-2,1.41-3,2.21S8,24.35,8.05,25.69a12.76,12.76,0,0,1-.88,4.65c-.48,1.33-1.36,3.41-.06,4.53a7.91,7.91,0,0,1,2.15,2.24c.61,1.08.61,2.09,2.17,2.14s3-.56,4.49-.41c4,.38,5.43,2.55,4.87,6.41a27.64,27.64,0,0,1-2.89,9.32c-1,1.71-1.62,3.62-2.61,5.29-.79,1.34-1.92,2.46-2.61,3.86-.41.81-1,1.14-.4,2S14,67,14.63,68c1,1.59,1.79,1.16,3.38,1,1.12-.12,2.41.37,3.26-.73.37-.5-.06-.32-.11-.71s.59-1.15.83-1.45c1.06-1.28,2.18-2.51,3.22-3.81,4.45-5.62,7.89-11.86,12.11-17.6,1.85-2.52,5.22-3.82,6.4-6.84a7.17,7.17,0,0,0-.12-4.1A9.82,9.82,0,0,1,44,30C44.4,29.23,43.78,30.32,44,30Z"/><path class="cls-2" d="M9,29.25c.75-1.51.91-3.66,1.29-5.3.23-1,.74-.37.54.35a4.63,4.63,0,0,0-.08,2.22c.26,1.25,0,2.19.84,3.36,1,1.39,2.91,1.84,4,3.26-.33.3-2.86-.93-3.45-1s-3.46.68-3.78.3c-.55-.66.06-2.41.66-3.23C9.15,29,8.91,29.41,9,29.25Z"/><path class="cls-3" d="M12.51,30.47c-.11.06-.35-.17-.37-.29A1,1,0,0,1,12.51,30.47Z"/><path class="cls-2" d="M44.38,25.51a.53.53,0,0,1-.05.58c.17-.21-2.07-1.39-2.13-1.41-1.14-.4-2.28.52-3.25.05-.59-.3-1.28-.76-2-.49s-1.83,1-2.66.56c-2-1.06-3.24-.56-5,.62-.84.58-1.72.09-2.55.6s-1.71,1.22-2.63,1.72a.39.39,0,0,1,.44-.2s-.49.31-.54.27c0-.52,3.41-2,2.32-2.74-.79-.52-2.34,1.07-2.89.52-.07-.07,2.35-1.11,3-.78,1.93,1.09,3.53-.63,5.2-1.55,1-.55,1.39-.13,2.41-.2s.33-.54.78-.91,2.57-1.35,2.6-2.29c0,0-3.08-2.05-3.3-2.61-.3-.74-.4-2.36-1.65-1.71-.76.39-1.23,1.65-2.17,1.6-1.29-.08-2.32-1.09-3.67-1a15.54,15.54,0,0,0-3.51.37c-2.08.76-3.58,3.2-5.47,4.35a6.6,6.6,0,0,0-3,3.52c-.11,1.27.81,2.39.66,3.68s-.91,1,.2,2.17c2.2,2.3,5.45,4.74,7.11,6.9.63-.39,2,1.85,2,2.3a1.71,1.71,0,0,1,.22-.25c.13,0,.44.71.65.8a2.56,2.56,0,0,0,1.29,0c1.2-.14,2.1-.69,3.28-.93s1.6-1.19,2.24-2.12a3,3,0,0,1,1.59-1.27c.31.08,1.38,0,1.15.44a.32.32,0,0,1,.28-.17c0,.49-.59.53-.62,1.27,0,.92-.95.69-1.53,1-.86.39-.88,1.15-2,1.41a7.24,7.24,0,0,0-2.32.74c-.27.17-2.64,1.18-2.83.85.05.58-2.05-2-2.33-2.3-2.18-2.78-5.41-4.17-7.86-6.63A4.64,4.64,0,0,1,14.15,29a36.34,36.34,0,0,1-.48-5.7c.05-1.39,2.17-2.56,3.29-3,.56-.21,2.65-1.46,2.65-2.07,0-.31,1.54-1.33,1.81-1.54,1.47-1.18,2.53-1.2,4.37-1.41a10.1,10.1,0,0,0,5.3-2.5c1.05-.8,1.64-1.3,2.78-.43,1.54,1.16.27,3,.88,4.45C35,17.43,36.24,19,37,19.07a6.54,6.54,0,0,1,2.65-.13c.9.45.93,1.52,1.07,2.41.39,2.52,1.8,2.88,3.68,4.16C44.5,25.6,44.08,25.31,44.38,25.51Z"/><path class="cls-2" d="M17.42,63.47l-.49.33c-.05-1.16,1.77-1.76,2.42-2.48a6.06,6.06,0,0,0,1.25-2.79,15.1,15.1,0,0,1,3.58-6.78c.44-.5,4-3.94,3.39-4.55.47-1.31.13-2.13-.21-3.43,0,.1-.1-2.13.18-1.66a1,1,0,0,0-.18.47.23.23,0,0,1,.2-.15,4,4,0,0,0-.09.48.22.22,0,0,1,.13-.12.33.33,0,0,0,0,.32s.47-.39.33-.16c.07-.4,0-.54-.26-.44.27-.33.23-.43-.1-.3.53-.67,2.14-.11,2.88-.3a7.6,7.6,0,0,0,3.44-1.79c.66-.63,1.28-2.12,2.23-2.34a5.23,5.23,0,0,0,2.61-1.51c1-1.1,2.28-1.18.51,0a28.64,28.64,0,0,0-4,3.06c-1.84,1.85-1.93,4.55-3,6.8S30.37,51.3,28.58,53c-2,1.9-3.42,4.23-5.32,6.2a31.09,31.09,0,0,1-5.84,4.28Z"/><path class="cls-2" d="M38,41c.73-1.71,2.68-3,3.77-4.53a.38.38,0,0,1,.15.24.59.59,0,0,1-.06-.14c.51,1.16-.83,2.58-1.77,3.06a9.29,9.29,0,0,0-2.79,2.86c-.2-.54.34-1.17.7-1.49C38.22,40.36,37.62,41.25,38,41Z"/><path class="cls-3" d="M41.52,39.05s-.62.28-.74.3a4.41,4.41,0,0,0,.74-.3S41.49,39.08,41.52,39.05Z"/><path class="cls-2" d="M22,65.84c0-.63.75-.88.94-1.44a8.19,8.19,0,0,0-1.1,1.44c-.33,0,.71-1.28.77-1.43a11.89,11.89,0,0,1-1,1.22c.26-.76,1-1.19,1.38-1.86-.15.16-1.41,1.81-1.55,1.68.24-.63.87-1,1.17-1.56a6.1,6.1,0,0,0-1.43,1.85c.11-.07.16-.1,0,.1-.25-.35.44-1.64,1.13-2A11.25,11.25,0,0,0,21.52,65c.55-.5,1-1.11,1.48-1.66-.65.42-2,2.7-2.82,2.48a.51.51,0,0,1,.42-.24l-.23-.08a1.23,1.23,0,0,0,.44-.57c-1.21,1.67.05-.27.11-.41a.91.91,0,0,1-1,.46,4,4,0,0,0,.7-.66c-.18.21-.9.8-1.18.68a.83.83,0,0,1,.71-.39.64.64,0,0,0-.28-.06c.14-.3,2.45-2.22,2.34-2.29a.24.24,0,0,0-.14.17c.48-.45.07-.3.37-.49a.14.14,0,0,1,0,.15c.15-.23.33-.42-.07-.48a2.68,2.68,0,0,0,.68-.89c-.48.58-1.17,1.75-1.94,1.79a.8.8,0,0,0,.3.06c-.35.25-1.08,1.9-1.78,1.54a.88.88,0,0,1,.67-.38.54.54,0,0,0-.25-.06.65.65,0,0,1,.67-.34c-.54-.55.12.12-.05-.35a.57.57,0,0,1-.61.24,2.17,2.17,0,0,1,1.05-.71c-.43-.07.07-.4.24-.47l-.6-.07a1.71,1.71,0,0,1,.71-.08,1.72,1.72,0,0,0-.5-.11A3.15,3.15,0,0,1,22,61.6c-.4-.26-.83-.06-1.14-.15.41-.32.86,0,1.3-.15l-.89-.1a9.47,9.47,0,0,1,1.3-.19,2.64,2.64,0,0,1-.78-.2,1.58,1.58,0,0,0,.86-.08h-.51c.17-.06,1,0,.9-.16s-.63.08-.81-.11a.5.5,0,0,1,.35-.25.23.23,0,0,0-.15.25c.12-.16,1.48-.37.69-.31a3.07,3.07,0,0,1,.53-.07,1.07,1.07,0,0,1-.38-.13.31.31,0,0,0,.28-.07c-.25-.32.63-.49.89-.25a1.68,1.68,0,0,0-.54.26,1,1,0,0,1,.41.16C23.8,60,23,61.23,22.68,61.72a8.53,8.53,0,0,1,1.63-1.6,7.76,7.76,0,0,1-.5.67,24.94,24.94,0,0,0,1.57-2c.53-.74.41-.39-.1-.35.08-.24.23-.3.46-.19a1.44,1.44,0,0,1-.14-.51c-.18.31-.85.33-1.19.3.24-.54.82-.39,1.25-.6l-.91.08c.24-.25.46-1,.95-.81a1.37,1.37,0,0,1-.67.54.52.52,0,0,1,.18,0,.28.28,0,0,0-.23.2c.41.26,1.06-1.61,1.15-.63a.56.56,0,0,1,.66-.29.5.5,0,0,0-.38-.08c.51-1.14.3-.16.67-.49a.16.16,0,0,0-.18-.11c0-.28,2.27-2.09,1.47-1.81.1.11,1.39.13-.44.42a1.66,1.66,0,0,1,.22,0c-.14.1-.41.63-.66.44.34-.25.42-.77.88-.89-.06-.07-1,.09.18-.32a.93.93,0,0,1-.33,0c.36-.41.92-.26,1.17-.78a2.05,2.05,0,0,1,.76-.76,1.29,1.29,0,0,1-.28,0,.94.94,0,0,1,.67-.49,2.29,2.29,0,0,0-.73.17c.2-.47.78-.32,1.12-.58-.31.08-.62.14-.94.2.14-.42.69-.23,1-.51a1,1,0,0,1-.38,0,1.87,1.87,0,0,1,.61-.39c-.64-.18-.27-.1.24-.32-1-.11-.13-.11.24-.48-.68,0-.77,0,.08-.27H31.2a.9.9,0,0,1,.51-.34l-.4,0A2.18,2.18,0,0,1,32,49c-.67-.16-.67-.07.11-.35-.29-.11-.89.09-.12-.28l-.38,0a5.72,5.72,0,0,1,.57-.39c-1.26.35.3-.24.41-.34-.75.07-.91.39-1.31.8-.06,0,.94,0-.08.12.54-.44.37-.9,1.24-1a3.12,3.12,0,0,0-.81.13c.14-.5.74-.44,1.1-.65a3,3,0,0,0-.84.21,1.63,1.63,0,0,1,.9-.46,2.33,2.33,0,0,0-.74.16,8.18,8.18,0,0,1,1.14-1,.6.6,0,0,1-.23,0,.65.65,0,0,1,.59-.51c-.74-.1,0-.25.26-.4-.44-.11-.66-.05,0-.28h-.35c.19-.61.35-.26.57-.75-.1-.08-.55-.13.21-.35a1.73,1.73,0,0,0-.83.21,1.18,1.18,0,0,1,.82-.58H33.9c.06,0,.26-.28.31-.34-.21-.22-.11-.13.29-.37-.2,0-.41,0-.61,0a.94.94,0,0,1,.77-.43c-.77-.35-.87.57-1,.6-.07-.66.59-.72,1-1-.34-.12-.25.33-.3-.16-.22.24-.28.22-.54.47a.21.21,0,0,1,0-.25.3.3,0,0,1,.05.15c.17-.48.53-.3.69-.36.11-.24.12-.16.36-.3-.6-.09-.15,0,.13-.27a.2.2,0,0,0-.33,0,.23.23,0,0,1,.16-.3.37.37,0,0,1,0,.18,2.08,2.08,0,0,0,.62-.54c-.06-.1-.27-.42.13-.33a.48.48,0,0,0,0,.35c.13-.18.2-1.09.5-1a.62.62,0,0,0-.06.46.59.59,0,0,1,.32-.55c-.37-.37.4-.13.36-.55a.26.26,0,0,1-.4.14A2.15,2.15,0,0,0,37,38.7a2.8,2.8,0,0,1-.09.58c.32-.37.14-.75.48-1a5.36,5.36,0,0,0-.15.78c.09-.25.19-1.16.66-1.07-.4,1.39-1.37,2.18-1.51,3.65-.07.75-.69,2.17-.16,2.83.39.48,1.36-1.24,1.47-1.37,1.42-1.67,3.34-2.67,4.7-4.4.32-.42.87-1.5,1.2-1.4a2.1,2.1,0,0,0-.4.56.36.36,0,0,0,.23-.06c0,.07-1.26,2.24-1.3,1.73l-.65.87a.53.53,0,0,1,.31-.24,5.77,5.77,0,0,1-2,1.71,8.14,8.14,0,0,1,.8-1,2.54,2.54,0,0,1-.54.36,1.15,1.15,0,0,0,.49-.51A7.79,7.79,0,0,1,39.08,42a.21.21,0,0,0,.33,0,.3.3,0,0,0-.16.19l.15,0s-.62,1.58-.53.16c-.31.47-1.66.93-1.51,1.68a.87.87,0,0,1,.39-.32c0,.22-2.74,4.75-3.06,4.55a14.7,14.7,0,0,0,.86-1.37.88.88,0,0,1,.05.15,1.78,1.78,0,0,0,.19-.62,5.86,5.86,0,0,1-.55.45c-.07.2,0,.22.24,0-.06.05-.65.46-.64.56a1.14,1.14,0,0,0,.32-.07c-.29.39-.55.29-.95.66.31.11.42-.39.66-.19-.37.25-.44.34-.18.28a2.27,2.27,0,0,1-.79.36,2.6,2.6,0,0,0,.63-.11c-.25.47-.87.32-1.15.75a.7.7,0,0,1,.46-.14,3.85,3.85,0,0,1-.65.56c.93-.25-.12.17-.28.48.87-.13,0,.09-.19.37H33a3.07,3.07,0,0,1-1,1.11.91.91,0,0,1,.23,0c-.11.2-.41.54-.45.62A.42.42,0,0,1,32,52a19.94,19.94,0,0,0-1.26,2.09c.18-.27.72-1.48,1.1-1.49-.44.5-.62,1.17-1.12,1.61a.31.31,0,0,0-.15-.1.62.62,0,0,0,.26-.45c-.13.09-.6,1-.39.27a1.12,1.12,0,0,1-.38.37.12.12,0,0,1,0,.15.4.4,0,0,1,.31-.19c-.16.25-.5.86-.31.19a2.36,2.36,0,0,0-.49.72.45.45,0,0,1,.38-.27c-.11.16-.33.53-.38.27a1.1,1.1,0,0,0-.37.65.73.73,0,0,1,.64-.47,2.24,2.24,0,0,0-.46.35c.33-.16-.43.21.51-.3a6.35,6.35,0,0,1-2.34,2.67.72.72,0,0,0,.46,0c-.07.36-.82.39-.4.52-.64.6-1.43,1.58-2.17,2.37l1-1a2.88,2.88,0,0,0-.66.92c.22-.22,1-1.49,1.32-1.41-1.61,2.22-3.35,4.36-5.17,6.41C22.06,65.25,23.85,63.79,22,65.84Z"/><path class="cls-2" d="M12.29,65.38c-.43-.85,2.51-1.13,2.94-1.24a.17.17,0,0,0-.18,0c0-.13.8-.16.92-.16-1.39.69.51.19.57.14a3.24,3.24,0,0,0,.54.82,10.22,10.22,0,0,0-.46-.94c.63.27.69,1.37,1,1.91a1.8,1.8,0,0,0-.21-.56c.34,0,1.34,1.67,1.72,1.88a1.57,1.57,0,0,1-.2-.25c.85.79,3.07.42,1.63,1.6-1,.31-3.24-.23-4,.36l.31,0c-.48,1-2-1-2.22-1.23a1.53,1.53,0,0,1,.42.34c.1-.1-1.23-1.36-1.38-1.49a1,1,0,0,0,.4.21,1.87,1.87,0,0,0-.64-.47.4.4,0,0,1,.17.23c-.44-.34-1-.61-1.32-1.14C12.14,65.07,12.39,65.57,12.29,65.38Z"/><path class="cls-2" d="M8.2,35.41c-.3-.2-.6-.41-.89-.63,1.79,0,3.57-.62,5.34-.52s2.26,2,3.72,2.68a18.44,18.44,0,0,1-2.62-2.53,7.43,7.43,0,0,1,3.82,2.38c-.76-.87.44.28.51.34-.18,0-.65-.25-.38,0,.63.51,1,1.22,1.65,1.73-.29-.88-1.13-1.32-1.51-2.1.65.27.66.84,1.3,1.21a1.9,1.9,0,0,1-.46-.69,6.43,6.43,0,0,1,1.89,3.43c-.47-.58-3.26-1.62-3.18-2.35a4.5,4.5,0,0,0,.37.28c-.14-.32,0,0,.08-.12-.68-.35-1-1.13-1.45-1.52,0,.27-1.65-1.11-1.71-1.18.28.6,1,.72,1.33,1.3a1.88,1.88,0,0,1-.45-.22c.73.6.93,1.15,1.75,1.83a3.5,3.5,0,0,0-.76-1c.36-.11,1,1,1.05,1.21-2-.59-3.63,0-5.63.12s-1.89-1.27-2.81-2.62c.84-.25,3.86-.31,4.33-1,.08-.13-4.73.09-5.29,0C8,35.1,8.47,35.46,8.2,35.41Z"/><path class="cls-2" d="M45.25,22.46a14.91,14.91,0,0,1-1.14,6.85c-.34.78,0,2-.53,2.6a8.37,8.37,0,0,0-.8,1.05c-.57-.87.36-2.51.72-3.26a15.54,15.54,0,0,0,1.18-4.24c.62-3.67-1.82-6.55-4.17-9-2.15-2.29-4.78-5.52-4.88-8.82,0-1.45-1-2.68-1.89-.83a7.42,7.42,0,0,1-2.67,3.31c-.63-1.79-2.34-.8-3.34,0-1.29,1-2.82,1.21-4.1,2.15a45.56,45.56,0,0,1-4.39,3.35,17.49,17.49,0,0,0-4.47,2.84,20.48,20.48,0,0,1-2.73,3c-1.18.82-3.39,1-3.32,2.85.06,1.53.23,3-.73,4.29.5-1.55.09-3.2.43-4.78A1,1,0,0,1,8.3,24c-.31-1.35,3.52-3.24,4.3-4.16A20.68,20.68,0,0,1,19.1,15c2.21-1.16,3.87-3,6.1-4.16a27.49,27.49,0,0,0,5.37-3.74c1-.83,4.58-4.53,5.67-2.94.84,1.22.38,2.5.41,3.83a6.44,6.44,0,0,0,1.12,3.64c1.13,1.55,2.31,3.29,3.69,4.84s3.64,3.91,3.79,5.95C45.34,23.82,45.21,21.92,45.25,22.46Z"/><path class="cls-3" d="M14.76,66.67c.14.15,1.34,1.54,1.51,1.3a4.58,4.58,0,0,0,1.95.18c.76.11.86.1.28,0,1.72.5-.8-1.29-1.13-1.53a1.13,1.13,0,0,1,.58.33c0-.41-2.08-1.69-2.14-2.29,0,.32.28.16-.4.06a2.46,2.46,0,0,0-1.41.49c-.71.39.5,1.23.76,1.49S14.43,66.34,14.76,66.67Zm1.52,1c-.2.14-2.47-1.91-2.35-2.17a1.35,1.35,0,0,1,.54-.19c.15,0,1-1,1.63.12.43.8,1.24,1.25,1.83,1.9a.21.21,0,0,0-.25,0c.44.28,1.11.36,1.37.71a4.17,4.17,0,0,1-2.77-.32C16.21,67.72,16.32,67.7,16.28,67.67Z"/><path class="cls-3" d="M15.11,65.5c-.5,0,.75,1.3.81,1.37.45.46.91.36,1.27.62,0-.34-.28-.58-.11-.48-.64-.37-1.19-1.48-2-1.51ZM16.47,67l.5.17A.46.46,0,0,1,16.47,67Zm-.18-.1a.53.53,0,0,1-.29-.39c.16.07.41.11.2.22a1.66,1.66,0,0,1,.45.25,1.05,1.05,0,0,1-.36-.08C16.2,66.86,16.45,67.11,16.29,66.94Zm-.53-.64c.08.09.3,0,.3.21C16,66.45,15.67,66.5,15.76,66.3Zm-.22-.19c.08,0,.3,0,.29.16C15.75,66.21,15.53,66.27,15.54,66.11Zm-.15-.2c.09.07.32,0,.32.18C15.6,66,15.35,66.1,15.39,65.91Zm-.1-.2c-.1.11-.14,0,0,0C15.24,65.77,15.26,65.71,15.29,65.71Z"/><path class="cls-4" d="M59.42,32.68h-9a1.9,1.9,0,0,1-1.07-.26.84.84,0,0,1-.37-.74,1,1,0,0,1,.77-1l.73-.26a.51.51,0,0,0,.22-.22,1.59,1.59,0,0,0,.23-1V10a1.56,1.56,0,0,0-.23-1,.61.61,0,0,0-.22-.23l-.73-.25a1,1,0,0,1-.77-1,.82.82,0,0,1,.37-.73,1.82,1.82,0,0,1,1.07-.26h9.68a2.3,2.3,0,0,1,1.21.23.91.91,0,0,1,.5.8,1,1,0,0,1-.92,1.05c-.5.12-.79.2-.88.23a.94.94,0,0,0-.29.23,1.68,1.68,0,0,0-.29,1.08Zm1.55,0V30.54a9.17,9.17,0,0,0,1.49-.39,3.83,3.83,0,0,0,1-.61A6.15,6.15,0,0,0,65,27.8a11.09,11.09,0,0,0,1.1-2.47,4.71,4.71,0,0,1,.56-1.39.9.9,0,0,1,.76-.34.83.83,0,0,1,.78.45,1.93,1.93,0,0,1,.12.84v7.79Z"/><path class="cls-4" d="M80.13,11.41l1,4L77.72,27.74a3.73,3.73,0,0,0-.15,1,1.77,1.77,0,0,0,1.13,1.72l.67.3a1,1,0,0,1,.63,1c0,.64-.47,1-1.4,1H73.74a1.86,1.86,0,0,1-1.12-.3.94.94,0,0,1-.41-.81c0-.37.28-.68.84-.92A6.8,6.8,0,0,0,74.21,30a3.52,3.52,0,0,0,.72-.76,7,7,0,0,0,.88-2.09Zm1.32-4.86h7.72L94.49,29a6.78,6.78,0,0,0,.35,1.05,1.27,1.27,0,0,0,.76.6,2.06,2.06,0,0,1,.69.42.8.8,0,0,1,.19.57c0,.67-.5,1-1.49,1H85.44a1.39,1.39,0,0,1-.92-.28.9.9,0,0,1-.35-.74.86.86,0,0,1,.16-.57,2.33,2.33,0,0,1,.68-.48,1.37,1.37,0,0,0,.54-.42,1,1,0,0,0,.15-.57,3.3,3.3,0,0,0,0-.58L85,26.27H79.69L80.21,24H84.5L81,8.42Z"/><path class="cls-4" d="M59.5,36.07v2.31a2.38,2.38,0,0,0-1.69,1,4.19,4.19,0,0,0-.55,2.35V58.37a2.73,2.73,0,0,0,.18.93,2.9,2.9,0,0,0,.47.83,1.82,1.82,0,0,0,.65.55,3.17,3.17,0,0,0,.94.22v2.33a10.86,10.86,0,0,1-6.45-1.93,10.57,10.57,0,0,1-3.64-4.59,17.28,17.28,0,0,1-1.22-6.82A17.65,17.65,0,0,1,49,44.5a12.89,12.89,0,0,1,2.31-4.34,12,12,0,0,1,3.66-3,8.71,8.71,0,0,1,4.11-1.13ZM61,38.4V36.09a13.42,13.42,0,0,1,1.52.32c.39.12,1.1.36,2.12.73a5,5,0,0,0,1.3.34.9.9,0,0,0,.84-.5l.25-.45a.87.87,0,0,1,.86-.46,1,1,0,0,1,.8.3,1.35,1.35,0,0,1,.28.9v8a1.52,1.52,0,0,1-.35,1.11,1.07,1.07,0,0,1-.78.34,1,1,0,0,1-.74-.3,2.09,2.09,0,0,1-.45-1,17.94,17.94,0,0,0-.78-2.38A10.87,10.87,0,0,0,64,40.11a6.17,6.17,0,0,0-1.42-1.18A4.11,4.11,0,0,0,61,38.4Zm.06,24.83V60.9a7.23,7.23,0,0,0,3.14-1.13,5.81,5.81,0,0,0,1.57-1.49,6.76,6.76,0,0,0,1-2,2.32,2.32,0,0,1,.45-.87.93.93,0,0,1,.68-.26,1,1,0,0,1,.77.35,1.27,1.27,0,0,1,.3.86,4.64,4.64,0,0,1-.66,2.09,9.81,9.81,0,0,1-1.69,2.26,9.19,9.19,0,0,1-2.59,1.87A8,8,0,0,1,61.07,63.23Z"/><path class="cls-4" d="M78.24,41.45l1,4L75.83,57.78a3.61,3.61,0,0,0-.15,1,1.75,1.75,0,0,0,1.13,1.72l.67.31a1,1,0,0,1,.63,1c0,.64-.47,1-1.4,1H71.85a1.86,1.86,0,0,1-1.12-.29.94.94,0,0,1-.41-.82c0-.37.28-.67.84-.91a6.09,6.09,0,0,0,1.16-.63,3.46,3.46,0,0,0,.72-.75,7.06,7.06,0,0,0,.88-2.09Zm1.32-4.87h7.72l5.32,22.5A7.59,7.59,0,0,0,93,60.13a1.27,1.27,0,0,0,.76.59,2.06,2.06,0,0,1,.69.42.85.85,0,0,1,.19.58c0,.66-.5,1-1.49,1H83.55a1.44,1.44,0,0,1-.92-.27.91.91,0,0,1-.35-.74.88.88,0,0,1,.15-.57,2.59,2.59,0,0,1,.69-.48,1.37,1.37,0,0,0,.54-.42,1.06,1.06,0,0,0,.15-.58,3.1,3.1,0,0,0,0-.57l-.62-2.78H77.8L78.32,54h4.29L79.08,38.46Z"/><path class="cls-4" d="M106.61,36.58v22.5a1.61,1.61,0,0,0,.29,1.07.67.67,0,0,0,.29.24l.88.24a1,1,0,0,1,.92,1,.94.94,0,0,1-.5.81,2.43,2.43,0,0,1-1.21.22H97.6a1.9,1.9,0,0,1-1.07-.25.87.87,0,0,1-.37-.74,1,1,0,0,1,.77-1l.73-.26a.57.57,0,0,0,.22-.22,1.61,1.61,0,0,0,.23-1V40.07a1.61,1.61,0,0,0-.23-1,.57.57,0,0,0-.22-.22l-.73-.26a1,1,0,0,1-.77-1,.86.86,0,0,1,.37-.74,1.9,1.9,0,0,1,1.07-.26h9Zm5.88,13.33a16.12,16.12,0,0,1,2.71.59,6.58,6.58,0,0,1,1.71.88,4.18,4.18,0,0,1,1.24,1.42,3.79,3.79,0,0,1,.43,1.74v4c0,.41.13.62.4.62a.39.39,0,0,0,.26-.09,2.37,2.37,0,0,0,.3-.34,1.28,1.28,0,0,1,1-.65.91.91,0,0,1,.65.35,1,1,0,0,1,.33.69,2.75,2.75,0,0,1-.57,1.44,6.29,6.29,0,0,1-1.4,1.52,4.8,4.8,0,0,1-1.71.91,7.31,7.31,0,0,1-2.16.28,5.26,5.26,0,0,1-3.94-1.44,5.51,5.51,0,0,1-1.42-4V54.54c0-.71,0-1.13,0-1.24a2.51,2.51,0,0,0-.54-1.32,2.3,2.3,0,0,0-1.59-.79v-2a3,3,0,0,0,1.48-.53,1.94,1.94,0,0,0,.53-.79,4.68,4.68,0,0,0,.14-1.3V41.45a2.87,2.87,0,0,0-.47-1.8,3.2,3.2,0,0,0-1.69-.94V36.58h.49a33.72,33.72,0,0,1,3.62.16,8,8,0,0,1,4,1.45,5.85,5.85,0,0,1,2.5,5.07A6.09,6.09,0,0,1,117,47.69a5.82,5.82,0,0,1-1.66,1.18A20.49,20.49,0,0,1,112.49,49.91Z"/><path class="cls-4" d="M126.39,43.3l2,3.37V56.93a4.7,4.7,0,0,0,.45,2.2,3.46,3.46,0,0,0,1.42,1.42l.58.33a.94.94,0,0,1,.5.86.9.9,0,0,1-.37.73,2.21,2.21,0,0,1-1.26.24h-4.42c-1.16,0-1.75-.33-1.75-1a.77.77,0,0,1,.19-.55,3.58,3.58,0,0,1,.79-.54,3.85,3.85,0,0,0,1.84-3.7Zm8-6.72,10.18,17.69v8.44h-5.22l-13-22.39a5.74,5.74,0,0,0-.69-1,1.61,1.61,0,0,0-.69-.42l-.73-.27a.92.92,0,0,1-.46-.34,1,1,0,0,1-.17-.56,1.16,1.16,0,0,1,.17-.6.91.91,0,0,1,.46-.39,6.45,6.45,0,0,1,1.77-.14Zm10.18,14.63-2-3.43v-5.3A5.24,5.24,0,0,0,142.1,40a3.85,3.85,0,0,0-1.66-1.47,1.25,1.25,0,0,1-.55-.41.89.89,0,0,1-.16-.56.85.85,0,0,1,.34-.76,1.87,1.87,0,0,1,1.08-.24h4.79a1.91,1.91,0,0,1,1.28.31,1,1,0,0,1,.32.73.88.88,0,0,1-.18.6,3.43,3.43,0,0,1-.87.55A3.31,3.31,0,0,0,145,40.35a5.22,5.22,0,0,0-.37,2.13Z"/><path class="cls-4" d="M160.37,62.71h-9a1.87,1.87,0,0,1-1.06-.25.85.85,0,0,1-.37-.74,1,1,0,0,1,.76-1c.43-.14.67-.23.74-.26a.65.65,0,0,0,.22-.22,1.68,1.68,0,0,0,.23-1V40.07a1.68,1.68,0,0,0-.23-1,.65.65,0,0,0-.22-.22c-.07,0-.31-.12-.74-.26a1,1,0,0,1-.76-1,.84.84,0,0,1,.37-.74,1.86,1.86,0,0,1,1.06-.26h9.54a1.86,1.86,0,0,1,1.06.26.84.84,0,0,1,.37.74,1,1,0,0,1-.76,1l-.74.26a.65.65,0,0,0-.22.22,1.68,1.68,0,0,0-.23,1V59.23a1.68,1.68,0,0,0,.23,1,.65.65,0,0,0,.22.22l.74.26a1,1,0,0,1,.76,1,.85.85,0,0,1-.37.74,1.87,1.87,0,0,1-1.06.25Z"/><path class="cls-4" d="M176,36.07v2.31a2.36,2.36,0,0,0-1.68,1,4.18,4.18,0,0,0-.56,2.35V58.37a2.53,2.53,0,0,0,.19.93,2.88,2.88,0,0,0,.46.83,1.94,1.94,0,0,0,.66.55,3.1,3.1,0,0,0,.93.22v2.33a10.9,10.9,0,0,1-6.45-1.93,10.57,10.57,0,0,1-3.64-4.59,17.46,17.46,0,0,1-1.22-6.82,17.65,17.65,0,0,1,.79-5.39,12.89,12.89,0,0,1,2.31-4.34,11.92,11.92,0,0,1,3.67-3,8.68,8.68,0,0,1,4.1-1.13Zm1.52,2.33V36.09a13.92,13.92,0,0,1,1.52.32c.39.12,1.09.36,2.11.73a5,5,0,0,0,1.3.34.91.91,0,0,0,.85-.5l.25-.45a.86.86,0,0,1,.86-.46,1,1,0,0,1,.79.3,1.29,1.29,0,0,1,.28.9v8a1.48,1.48,0,0,1-.35,1.11,1.05,1.05,0,0,1-.78.34,1,1,0,0,1-.74-.3,2.32,2.32,0,0,1-.45-1,16.57,16.57,0,0,0-.78-2.38,10.87,10.87,0,0,0-1.88-2.94,6.13,6.13,0,0,0-1.41-1.18A4.23,4.23,0,0,0,177.49,38.4Zm0,24.83V60.9a7.15,7.15,0,0,0,3.14-1.13,5.81,5.81,0,0,0,1.57-1.49,6.79,6.79,0,0,0,1-2,2.07,2.07,0,0,1,.45-.87.91.91,0,0,1,.68-.26,1,1,0,0,1,.76.35,1.23,1.23,0,0,1,.31.86,4.64,4.64,0,0,1-.66,2.09,9.85,9.85,0,0,1-1.7,2.26,9.05,9.05,0,0,1-2.59,1.87A8,8,0,0,1,177.54,63.23Z"/><path class="cls-4" d="M198.81,36.58V62.71h-9a1.9,1.9,0,0,1-1.07-.25.85.85,0,0,1-.37-.74,1,1,0,0,1,.77-1l.73-.26a.57.57,0,0,0,.22-.22,1.61,1.61,0,0,0,.23-1V40.07a1.61,1.61,0,0,0-.23-1,.57.57,0,0,0-.22-.22l-.73-.26a1,1,0,0,1-.77-1,.84.84,0,0,1,.37-.74,1.9,1.9,0,0,1,1.07-.26h9Zm1.61,13.94V48.3a5.07,5.07,0,0,0,1.65-1.17,4.1,4.1,0,0,0,.78-1.68,2.32,2.32,0,0,1,.4-1,.94.94,0,0,1,.71-.28.84.84,0,0,1,.84.48,2.91,2.91,0,0,1,.14,1.13v7.3a2.73,2.73,0,0,1-.2,1.24.79.79,0,0,1-.74.35.9.9,0,0,1-.69-.27,2,2,0,0,1-.4-.9,5,5,0,0,0-.93-2A2.85,2.85,0,0,0,200.42,50.52Zm.1-13.94h7.71v6.78a1.32,1.32,0,0,1-.23.86.89.89,0,0,1-.73.27.93.93,0,0,1-.61-.17,1.63,1.63,0,0,1-.36-.71,7.22,7.22,0,0,0-2.14-3.39,6.66,6.66,0,0,0-3.64-1.4Zm0,26.13V60.65a8.84,8.84,0,0,0,2.06-.54,6.44,6.44,0,0,0,1.64-1,6.54,6.54,0,0,0,1.31-1.47,9.19,9.19,0,0,0,.93-2,2.21,2.21,0,0,1,.44-.83.85.85,0,0,1,.63-.22.84.84,0,0,1,.75.32,2.08,2.08,0,0,1,.21,1.1v6.75Z"/><path class="cls-4" d="M221.82,36.58v22.5a1.61,1.61,0,0,0,.29,1.07.67.67,0,0,0,.29.24l.88.24a1,1,0,0,1,.92,1,.94.94,0,0,1-.5.81,2.43,2.43,0,0,1-1.21.22h-9.68a1.9,1.9,0,0,1-1.07-.25.87.87,0,0,1-.37-.74,1,1,0,0,1,.77-1l.73-.26a.57.57,0,0,0,.22-.22,1.61,1.61,0,0,0,.23-1V40.07a1.61,1.61,0,0,0-.23-1,.57.57,0,0,0-.22-.22l-.73-.26a1,1,0,0,1-.77-1,.86.86,0,0,1,.37-.74,1.9,1.9,0,0,1,1.07-.26h9Zm5.88,13.33a16.12,16.12,0,0,1,2.71.59,6.58,6.58,0,0,1,1.71.88,4.18,4.18,0,0,1,1.24,1.42,3.79,3.79,0,0,1,.43,1.74v4c0,.41.13.62.4.62a.39.39,0,0,0,.26-.09,2.37,2.37,0,0,0,.3-.34,1.28,1.28,0,0,1,1-.65.91.91,0,0,1,.65.35,1,1,0,0,1,.33.69,2.75,2.75,0,0,1-.57,1.44,6.29,6.29,0,0,1-1.4,1.52A4.8,4.8,0,0,1,233,63a7.31,7.31,0,0,1-2.16.28,5.26,5.26,0,0,1-3.94-1.44,5.51,5.51,0,0,1-1.42-4V54.54c0-.71,0-1.13,0-1.24a2.51,2.51,0,0,0-.54-1.32,2.3,2.3,0,0,0-1.59-.79v-2a3,3,0,0,0,1.48-.53,1.94,1.94,0,0,0,.53-.79,4.68,4.68,0,0,0,.14-1.3V41.45a2.87,2.87,0,0,0-.47-1.8,3.2,3.2,0,0,0-1.69-.94V36.58h.49a33.72,33.72,0,0,1,3.62.16,8,8,0,0,1,4,1.45,5.85,5.85,0,0,1,2.5,5.07,6.09,6.09,0,0,1-1.68,4.43,5.82,5.82,0,0,1-1.66,1.18A20.49,20.49,0,0,1,227.7,49.91Z"/><path class="cls-4" d="M249.26,62.71h-9a1.87,1.87,0,0,1-1.06-.25.86.86,0,0,1-.38-.74,1,1,0,0,1,.77-1l.74-.26a.65.65,0,0,0,.22-.22,1.68,1.68,0,0,0,.23-1V40.07a1.68,1.68,0,0,0-.23-1,.65.65,0,0,0-.22-.22l-.74-.26a1,1,0,0,1-.77-1,.85.85,0,0,1,.38-.74,1.86,1.86,0,0,1,1.06-.26h9.53a1.9,1.9,0,0,1,1.07.26.84.84,0,0,1,.37.74,1,1,0,0,1-.77,1l-.73.26a.57.57,0,0,0-.22.22,1.61,1.61,0,0,0-.23,1V59.23a1.61,1.61,0,0,0,.23,1,.57.57,0,0,0,.22.22l.73.26a1,1,0,0,1,.77,1,.85.85,0,0,1-.37.74,1.9,1.9,0,0,1-1.07.25Z"/><path class="cls-4" d="M260.69,41.45l1,4-3.39,12.37a3.61,3.61,0,0,0-.15,1,1.76,1.76,0,0,0,1.13,1.72l.67.31a1,1,0,0,1,.63,1c0,.64-.46,1-1.4,1h-4.86a1.88,1.88,0,0,1-1.12-.29,1,1,0,0,1-.41-.82c0-.37.28-.67.84-.91a5.78,5.78,0,0,0,1.16-.63,3.24,3.24,0,0,0,.72-.75,6.81,6.81,0,0,0,.88-2.09ZM262,36.58h7.71L275,59.08a9.21,9.21,0,0,0,.35,1.05,1.3,1.3,0,0,0,.76.59,1.87,1.87,0,0,1,.69.42.85.85,0,0,1,.19.58c0,.66-.49,1-1.49,1H266a1.46,1.46,0,0,1-.92-.27.91.91,0,0,1-.35-.74.88.88,0,0,1,.16-.57,2.28,2.28,0,0,1,.69-.48,1.4,1.4,0,0,0,.53-.42,1,1,0,0,0,.16-.58,2.37,2.37,0,0,0-.06-.57l-.61-2.78h-5.34l.51-2.28h4.29l-3.52-15.56Z"/><line class="cls-5" x1="100.69" y1="32.68" x2="269.8" y2="32.68"/></svg>